<svg xmlns="http://www.w3.org/2000/svg" width="100.868" height="117.068" viewBox="0 0 100.868 117.068">
  <path id="Path_425" data-name="Path 425" d="M174.221,1842.76a3.861,3.861,0,0,0,3.023,1.456h48.183a3.856,3.856,0,0,0,3.576-2.4c.074-.182,1.007-2.633,1.359-3.613,1-2.794,2.006-5.834,2.942-9.023a120.8,120.8,0,0,0,3.435-14.809c1.63-10.2,1.176-18.363-2.235-23.959-3.547-5.818-9.88-10.007-18.145-12.973a78.3,78.3,0,0,0-13.408-3.421c-1.591-.267-2.579-.383-2.579-.383v-34.986a11.541,11.541,0,0,0-11.564-11.5H186.88a11.546,11.546,0,0,0-11.564,11.515l.007,60.636-12.837-11.184c-8.244-7.183-19.715-5.275-25.142,4.183a3.872,3.872,0,0,0,.258,4.4Zm-27.566-49.672c3.147-2.4,7.294-2.211,10.755.8l19.223,16.749a3.857,3.857,0,0,0,6.393-2.889v-69.089a3.853,3.853,0,0,1,3.854-3.838h1.928a3.847,3.847,0,0,1,3.854,3.819v38.4a3.845,3.845,0,0,0,3.575,3.828c.239.017.73.062,1.436.142,1.2.137,2.545.323,3.995.567a70.723,70.723,0,0,1,12.077,3.073c6.761,2.426,11.708,5.7,14.169,9.734,2.211,3.628,2.578,10.217,1.212,18.77a113.384,113.384,0,0,1-3.222,13.861c-.891,3.035-1.846,5.933-2.8,8.592a7.767,7.767,0,0,0-.314.926H179.171l-33.714-42.326A9.331,9.331,0,0,1,146.655,1793.088Z" transform="translate(-136.781 -1727.148)" fill="#3d58a6"/>
</svg>
